<svg width="25" height="24" viewBox="0 0 25 24" fill="none" xmlns="http://www.w3.org/2000/svg">
<g clip-path="url(#clip0_60710_22624)">
<path d="M20.5 21H17.5V19H20.5V21ZM20.5 17H17.5V15H20.5V17ZM20.5 13H17.5V11H20.5V13ZM24.5 7.8C24.1 4.5 21.3 2 18 2C16.3 2 14.6 2.7 13.4 3.9C12.7 4.6 12.2 5.3 11.9 6.2L16.1 9H22.5V22H24.5V7.8ZM13.8 7C14.4 5.2 16.1 4 18 4C19.9 4 21.6 5.2 22.2 7H13.8ZM8 6L0.5 11V22H15.5V11L8 6ZM13.5 20H10.5V14H5.5V20H2.5V12L8 8.5L13.5 12V20Z" fill="currentColor"/>
</g>
<defs>
<clipPath id="clip0_60710_22624">
<rect width="24" height="24" fill="white" transform="translate(0.5)"/>
</clipPath>
</defs>
</svg>
