<svg width="25" height="24" viewBox="0 0 25 24" fill="none" xmlns="http://www.w3.org/2000/svg">
<path d="M11.2092 15.3322H13.4455V12.5367H16.241V10.3003H13.4455V7.50486H11.2092V10.3003H8.41368V12.5367H11.2092V15.3322ZM12.3274 21.9989C10.0813 21.3317 8.21501 19.9709 6.72856 17.9164C5.24211 15.8619 4.49926 13.5468 4.5 10.9713V4.92407L12.3274 2L20.1547 4.92407V10.9713C20.1547 13.5461 19.4119 15.8607 17.9261 17.9152C16.4404 19.9697 14.5742 21.3302 12.3274 21.9989ZM12.3274 20.8125C14.2656 20.1975 15.8683 18.9675 17.1356 17.1224C18.4029 15.2774 19.0365 13.2274 19.0365 10.9724V5.6878L12.3274 3.19423L5.61819 5.6878V10.9713C5.61819 13.2263 6.25184 15.2763 7.51912 17.1213C8.78641 18.9663 10.3892 20.1975 12.3274 20.8125Z" fill="currentColor"/>
</svg>
