<svg width="25" height="24" viewBox="0 0 25 24" fill="none" xmlns="http://www.w3.org/2000/svg">
  <g clip-path="url(#clip0_60710_18733)">
    <path d="M6.85603 3.23503C7.01686 3.09958 7.21628 3.01826 7.42597 3.00264C7.63565 2.98702 7.84492 3.0379 8.02403 3.14803C11.48 5.27503 13.374 7.96603 14.384 10.928C14.634 11.661 14.829 12.408 14.98 13.164C16.009 11.434 17.653 10.062 20.129 9.07203C20.3036 9.00231 20.4943 8.98322 20.6793 9.01693C20.8642 9.05065 21.0359 9.13582 21.1746 9.26267C21.3134 9.38951 21.4136 9.5529 21.4637 9.73408C21.5138 9.91527 21.5119 10.1069 21.458 10.287L21.277 10.891C19.917 15.419 19.5 16.806 19.5 20C19.5 20.2652 19.3947 20.5196 19.2071 20.7071C19.0196 20.8947 18.7653 21 18.5 21C18.2348 21 17.9805 20.8947 17.7929 20.7071C17.6054 20.5196 17.5 20.2652 17.5 20C17.5 16.945 17.88 15.3 18.87 11.958C17.748 12.702 17.009 13.566 16.513 14.523C15.748 15.997 15.5 17.805 15.5 20C15.5 20.2652 15.3947 20.5196 15.2071 20.7071C15.0196 20.8947 14.7653 21 14.5 21C14.2348 21 13.9805 20.8947 13.7929 20.7071C13.6054 20.5196 13.5 20.2652 13.5 20C13.5 17.008 13.37 14.153 12.491 11.573C11.901 9.84403 10.969 8.22203 9.47303 6.77103C10.49 10.631 10.5 14.355 10.5 19.745V20C10.5 20.2652 10.3947 20.5196 10.2071 20.7071C10.0196 20.8947 9.76525 21 9.50003 21C9.23482 21 8.98046 20.8947 8.79293 20.7071C8.60539 20.5196 8.50003 20.2652 8.50003 20C8.50003 17.71 8.49003 15.629 7.92303 13.87C7.59703 12.857 7.08303 11.95 6.24003 11.196C7.16003 14.349 7.50003 16.683 7.50003 20C7.50003 20.2652 7.39468 20.5196 7.20714 20.7071C7.0196 20.8947 6.76525 21 6.50003 21C6.23482 21 5.98046 20.8947 5.79293 20.7071C5.60539 20.5196 5.50003 20.2652 5.50003 20C5.50003 16.136 5.02804 13.745 3.55104 9.31603C3.49092 9.13516 3.48375 8.94088 3.53037 8.75607C3.57699 8.57126 3.67545 8.40362 3.81415 8.2729C3.95286 8.14218 4.12604 8.05382 4.31328 8.01824C4.50053 7.98265 4.69404 8.00131 4.87103 8.07203C6.26603 8.62903 7.32603 9.37303 8.12603 10.252C7.85832 8.23429 7.33617 6.25857 6.57203 4.37203C6.49373 4.17673 6.47903 3.96171 6.53002 3.75757C6.58101 3.55343 6.6951 3.37057 6.85603 3.23503Z" fill="currentColor"/>
  </g>
  <defs>
    <clipPath id="clip0_60710_18733">
      <rect width="24" height="24" fill="white" transform="translate(0.5)"/>
    </clipPath>
  </defs>
</svg>
